<mxfile modified="2021-01-19T11:29:28.542Z" host="app.diagrams.net" agent="5.0 (Windows NT 10.0; Win64; x64) AppleWebKit/537.36 (KHTML, like Gecko) Chrome/87.0.4280.141 Safari/537.36" etag="BbbTUHbWFoTGcLhzO_pi" version="14.2.4" type="github">
  <diagram id="Ht1M8jgEwFfnCIfOTk4-" name="Page-1">
    <mxGraphModel dx="3327" dy="936" grid="1" gridSize="10" guides="1" tooltips="1" connect="1" arrows="1" fold="1" page="1" pageScale="1" pageWidth="1654" pageHeight="1169" math="0" shadow="0">
      <root>
        <mxCell id="0" />
        <mxCell id="1" parent="0" />
        <mxCell id="bTy6FdHvfOLYRTyY2FJP-49" value="&lt;font style=&quot;font-size: 20px&quot;&gt;code_view&lt;/font&gt;" style="points=[[0,0],[0.25,0],[0.5,0],[0.75,0],[1,0],[1,0.25],[1,0.5],[1,0.75],[1,1],[0.75,1],[0.5,1],[0.25,1],[0,1],[0,0.75],[0,0.5],[0,0.25]];outlineConnect=0;gradientColor=none;html=1;whiteSpace=wrap;fontSize=12;fontStyle=0;shape=mxgraph.aws4.group;grIcon=mxgraph.aws4.group_ec2_instance_contents;strokeColor=#D86613;fillColor=none;verticalAlign=top;align=center;spacingLeft=30;fontColor=#D86613;dashed=0;" vertex="1" parent="1">
          <mxGeometry x="-930" y="515" width="1830" height="1180" as="geometry" />
        </mxCell>
        <mxCell id="bTy6FdHvfOLYRTyY2FJP-52" value="bus" style="swimlane;fontStyle=0;childLayout=stackLayout;horizontal=1;startSize=26;fillColor=none;horizontalStack=0;resizeParent=1;resizeParentMax=0;resizeLast=0;collapsible=1;marginBottom=0;" vertex="1" parent="1">
          <mxGeometry x="-170" y="660" width="80" height="104" as="geometry" />
        </mxCell>
        <mxCell id="bTy6FdHvfOLYRTyY2FJP-53" value="dhmap" style="text;strokeColor=none;fillColor=none;align=left;verticalAlign=top;spacingLeft=4;spacingRight=4;overflow=hidden;rotatable=0;points=[[0,0.5],[1,0.5]];portConstraint=eastwest;" vertex="1" parent="bTy6FdHvfOLYRTyY2FJP-52">
          <mxGeometry y="26" width="80" height="26" as="geometry" />
        </mxCell>
        <mxCell id="bTy6FdHvfOLYRTyY2FJP-54" value="configs" style="text;strokeColor=none;fillColor=none;align=left;verticalAlign=top;spacingLeft=4;spacingRight=4;overflow=hidden;rotatable=0;points=[[0,0.5],[1,0.5]];portConstraint=eastwest;" vertex="1" parent="bTy6FdHvfOLYRTyY2FJP-52">
          <mxGeometry y="52" width="80" height="26" as="geometry" />
        </mxCell>
        <mxCell id="bTy6FdHvfOLYRTyY2FJP-55" value="cacheData" style="text;strokeColor=none;fillColor=none;align=left;verticalAlign=top;spacingLeft=4;spacingRight=4;overflow=hidden;rotatable=0;points=[[0,0.5],[1,0.5]];portConstraint=eastwest;" vertex="1" parent="bTy6FdHvfOLYRTyY2FJP-52">
          <mxGeometry y="78" width="80" height="26" as="geometry" />
        </mxCell>
        <mxCell id="bTy6FdHvfOLYRTyY2FJP-56" style="edgeStyle=orthogonalEdgeStyle;rounded=0;orthogonalLoop=1;jettySize=auto;html=1;entryX=0.5;entryY=0.5;entryDx=0;entryDy=-15;entryPerimeter=0;fontSize=20;" edge="1" parent="1" source="bTy6FdHvfOLYRTyY2FJP-60" target="bTy6FdHvfOLYRTyY2FJP-65">
          <mxGeometry relative="1" as="geometry" />
        </mxCell>
        <mxCell id="bTy6FdHvfOLYRTyY2FJP-57" style="edgeStyle=orthogonalEdgeStyle;rounded=0;orthogonalLoop=1;jettySize=auto;html=1;entryX=0.5;entryY=0.5;entryDx=0;entryDy=-15;entryPerimeter=0;fontSize=20;" edge="1" parent="1" source="bTy6FdHvfOLYRTyY2FJP-60" target="bTy6FdHvfOLYRTyY2FJP-61">
          <mxGeometry relative="1" as="geometry" />
        </mxCell>
        <mxCell id="bTy6FdHvfOLYRTyY2FJP-58" value="挂载" style="edgeLabel;html=1;align=center;verticalAlign=middle;resizable=0;points=[];fontSize=13;" vertex="1" connectable="0" parent="bTy6FdHvfOLYRTyY2FJP-57">
          <mxGeometry x="-0.1786" y="4" relative="1" as="geometry">
            <mxPoint as="offset" />
          </mxGeometry>
        </mxCell>
        <mxCell id="bTy6FdHvfOLYRTyY2FJP-59" style="edgeStyle=orthogonalEdgeStyle;rounded=0;orthogonalLoop=1;jettySize=auto;html=1;fontSize=20;" edge="1" parent="1" source="bTy6FdHvfOLYRTyY2FJP-60" target="bTy6FdHvfOLYRTyY2FJP-66">
          <mxGeometry relative="1" as="geometry" />
        </mxCell>
        <mxCell id="bTy6FdHvfOLYRTyY2FJP-75" style="edgeStyle=orthogonalEdgeStyle;rounded=0;orthogonalLoop=1;jettySize=auto;html=1;entryX=0.5;entryY=1;entryDx=0;entryDy=0;entryPerimeter=0;fontSize=13;" edge="1" parent="1" source="bTy6FdHvfOLYRTyY2FJP-60" target="bTy6FdHvfOLYRTyY2FJP-72">
          <mxGeometry relative="1" as="geometry" />
        </mxCell>
        <mxCell id="bTy6FdHvfOLYRTyY2FJP-60" value="main.js" style="strokeWidth=2;html=1;shape=mxgraph.flowchart.start_1;whiteSpace=wrap;fontSize=20;" vertex="1" parent="1">
          <mxGeometry x="510" y="839" width="100" height="60" as="geometry" />
        </mxCell>
        <mxCell id="bTy6FdHvfOLYRTyY2FJP-61" value="DHGIS" style="html=1;dashed=0;whitespace=wrap;shape=mxgraph.dfd.start;fontSize=20;" vertex="1" parent="1">
          <mxGeometry x="300" y="949" width="80" height="30" as="geometry" />
        </mxCell>
        <mxCell id="bTy6FdHvfOLYRTyY2FJP-62" style="edgeStyle=orthogonalEdgeStyle;rounded=0;orthogonalLoop=1;jettySize=auto;html=1;fontSize=20;" edge="1" parent="1" source="bTy6FdHvfOLYRTyY2FJP-65" target="bTy6FdHvfOLYRTyY2FJP-68">
          <mxGeometry relative="1" as="geometry" />
        </mxCell>
        <mxCell id="bTy6FdHvfOLYRTyY2FJP-63" style="edgeStyle=orthogonalEdgeStyle;rounded=0;orthogonalLoop=1;jettySize=auto;html=1;fontSize=20;" edge="1" parent="1" source="bTy6FdHvfOLYRTyY2FJP-65" target="bTy6FdHvfOLYRTyY2FJP-71">
          <mxGeometry relative="1" as="geometry" />
        </mxCell>
        <mxCell id="bTy6FdHvfOLYRTyY2FJP-64" value="restAjax" style="edgeLabel;html=1;align=center;verticalAlign=middle;resizable=0;points=[];fontSize=13;" vertex="1" connectable="0" parent="bTy6FdHvfOLYRTyY2FJP-63">
          <mxGeometry x="0.0784" y="-1" relative="1" as="geometry">
            <mxPoint as="offset" />
          </mxGeometry>
        </mxCell>
        <mxCell id="bTy6FdHvfOLYRTyY2FJP-65" value="UTIL" style="html=1;dashed=0;whitespace=wrap;shape=mxgraph.dfd.start;fontSize=20;" vertex="1" parent="1">
          <mxGeometry x="520" y="949" width="80" height="30" as="geometry" />
        </mxCell>
        <mxCell id="bTy6FdHvfOLYRTyY2FJP-66" value="ROUTER" style="html=1;dashed=0;whitespace=wrap;shape=mxgraph.dfd.start;fontSize=20;" vertex="1" parent="1">
          <mxGeometry x="730" y="949" width="80" height="30" as="geometry" />
        </mxCell>
        <mxCell id="bTy6FdHvfOLYRTyY2FJP-67" style="edgeStyle=orthogonalEdgeStyle;rounded=0;orthogonalLoop=1;jettySize=auto;html=1;entryX=0.5;entryY=0.5;entryDx=0;entryDy=15;entryPerimeter=0;fontSize=20;" edge="1" parent="1" source="bTy6FdHvfOLYRTyY2FJP-68" target="bTy6FdHvfOLYRTyY2FJP-65">
          <mxGeometry relative="1" as="geometry" />
        </mxCell>
        <mxCell id="bTy6FdHvfOLYRTyY2FJP-68" value="urlParmas" style="text;html=1;strokeColor=none;fillColor=none;align=center;verticalAlign=middle;whiteSpace=wrap;rounded=0;fontSize=20;" vertex="1" parent="1">
          <mxGeometry x="540" y="1069" width="40" height="20" as="geometry" />
        </mxCell>
        <mxCell id="bTy6FdHvfOLYRTyY2FJP-69" style="edgeStyle=orthogonalEdgeStyle;rounded=0;orthogonalLoop=1;jettySize=auto;html=1;fontSize=13;" edge="1" parent="1" source="bTy6FdHvfOLYRTyY2FJP-71" target="bTy6FdHvfOLYRTyY2FJP-66">
          <mxGeometry relative="1" as="geometry" />
        </mxCell>
        <mxCell id="bTy6FdHvfOLYRTyY2FJP-70" value="productVersion" style="edgeLabel;html=1;align=center;verticalAlign=middle;resizable=0;points=[];fontSize=13;" vertex="1" connectable="0" parent="bTy6FdHvfOLYRTyY2FJP-69">
          <mxGeometry x="0.012" y="-2" relative="1" as="geometry">
            <mxPoint as="offset" />
          </mxGeometry>
        </mxCell>
        <mxCell id="bTy6FdHvfOLYRTyY2FJP-88" style="edgeStyle=orthogonalEdgeStyle;rounded=0;orthogonalLoop=1;jettySize=auto;html=1;fontSize=13;" edge="1" parent="1" source="bTy6FdHvfOLYRTyY2FJP-71">
          <mxGeometry relative="1" as="geometry">
            <mxPoint x="130" y="810" as="targetPoint" />
          </mxGeometry>
        </mxCell>
        <mxCell id="bTy6FdHvfOLYRTyY2FJP-89" value="EmapVersion" style="edgeLabel;html=1;align=center;verticalAlign=middle;resizable=0;points=[];fontSize=13;" vertex="1" connectable="0" parent="bTy6FdHvfOLYRTyY2FJP-88">
          <mxGeometry x="-0.1206" relative="1" as="geometry">
            <mxPoint as="offset" />
          </mxGeometry>
        </mxCell>
        <mxCell id="bTy6FdHvfOLYRTyY2FJP-71" value="&lt;font style=&quot;font-size: 13px&quot;&gt;version.js&lt;/font&gt;" style="html=1;verticalLabelPosition=bottom;align=center;labelBackgroundColor=#ffffff;verticalAlign=top;strokeWidth=2;strokeColor=#0080F0;shadow=0;dashed=0;shape=mxgraph.ios7.icons.document;fontSize=20;" vertex="1" parent="1">
          <mxGeometry x="630" y="1134" width="21" height="35" as="geometry" />
        </mxCell>
        <mxCell id="bTy6FdHvfOLYRTyY2FJP-80" style="edgeStyle=orthogonalEdgeStyle;rounded=0;orthogonalLoop=1;jettySize=auto;html=1;fontSize=13;" edge="1" parent="1" source="bTy6FdHvfOLYRTyY2FJP-72" target="bTy6FdHvfOLYRTyY2FJP-79">
          <mxGeometry relative="1" as="geometry" />
        </mxCell>
        <mxCell id="bTy6FdHvfOLYRTyY2FJP-72" value="webpack_dev" style="strokeWidth=2;html=1;shape=mxgraph.flowchart.start_1;whiteSpace=wrap;fontSize=20;" vertex="1" parent="1">
          <mxGeometry x="480" y="690" width="160" height="90" as="geometry" />
        </mxCell>
        <mxCell id="bTy6FdHvfOLYRTyY2FJP-81" style="edgeStyle=orthogonalEdgeStyle;rounded=0;orthogonalLoop=1;jettySize=auto;html=1;entryX=0;entryY=0.5;entryDx=0;entryDy=0;entryPerimeter=0;fontSize=13;" edge="1" parent="1" source="bTy6FdHvfOLYRTyY2FJP-79" target="bTy6FdHvfOLYRTyY2FJP-72">
          <mxGeometry relative="1" as="geometry" />
        </mxCell>
        <mxCell id="bTy6FdHvfOLYRTyY2FJP-82" value="Emap" style="edgeLabel;html=1;align=center;verticalAlign=middle;resizable=0;points=[];fontSize=13;" vertex="1" connectable="0" parent="bTy6FdHvfOLYRTyY2FJP-81">
          <mxGeometry x="-0.16" y="3" relative="1" as="geometry">
            <mxPoint as="offset" />
          </mxGeometry>
        </mxCell>
        <mxCell id="bTy6FdHvfOLYRTyY2FJP-79" value="index.js" style="html=1;dashed=0;whitespace=wrap;shape=mxgraph.dfd.start;fontSize=20;" vertex="1" parent="1">
          <mxGeometry x="250" y="720" width="80" height="30" as="geometry" />
        </mxCell>
        <mxCell id="bTy6FdHvfOLYRTyY2FJP-97" style="edgeStyle=orthogonalEdgeStyle;rounded=0;orthogonalLoop=1;jettySize=auto;html=1;entryX=0;entryY=0.5;entryDx=0;entryDy=0;entryPerimeter=0;fontSize=13;" edge="1" parent="1" source="bTy6FdHvfOLYRTyY2FJP-90" target="bTy6FdHvfOLYRTyY2FJP-79">
          <mxGeometry relative="1" as="geometry" />
        </mxCell>
        <mxCell id="bTy6FdHvfOLYRTyY2FJP-98" value="dhgis" style="edgeLabel;html=1;align=center;verticalAlign=middle;resizable=0;points=[];fontSize=13;" vertex="1" connectable="0" parent="bTy6FdHvfOLYRTyY2FJP-97">
          <mxGeometry x="-0.2125" y="1" relative="1" as="geometry">
            <mxPoint as="offset" />
          </mxGeometry>
        </mxCell>
        <mxCell id="bTy6FdHvfOLYRTyY2FJP-114" value="" style="edgeStyle=orthogonalEdgeStyle;rounded=0;orthogonalLoop=1;jettySize=auto;html=1;fontSize=13;" edge="1" parent="1" source="bTy6FdHvfOLYRTyY2FJP-90" target="bTy6FdHvfOLYRTyY2FJP-112">
          <mxGeometry relative="1" as="geometry" />
        </mxCell>
        <mxCell id="bTy6FdHvfOLYRTyY2FJP-118" style="edgeStyle=orthogonalEdgeStyle;rounded=0;orthogonalLoop=1;jettySize=auto;html=1;entryX=0.524;entryY=0;entryDx=0;entryDy=0;entryPerimeter=0;fontSize=13;" edge="1" parent="1" source="bTy6FdHvfOLYRTyY2FJP-90" target="bTy6FdHvfOLYRTyY2FJP-115">
          <mxGeometry relative="1" as="geometry" />
        </mxCell>
        <mxCell id="bTy6FdHvfOLYRTyY2FJP-119" value="install" style="edgeLabel;html=1;align=center;verticalAlign=middle;resizable=0;points=[];fontSize=13;" vertex="1" connectable="0" parent="bTy6FdHvfOLYRTyY2FJP-118">
          <mxGeometry x="-0.3515" y="4" relative="1" as="geometry">
            <mxPoint as="offset" />
          </mxGeometry>
        </mxCell>
        <mxCell id="bTy6FdHvfOLYRTyY2FJP-90" value="dhgis.js&lt;br&gt;" style="html=1;verticalLabelPosition=bottom;align=center;labelBackgroundColor=#ffffff;verticalAlign=top;strokeWidth=2;strokeColor=#0080F0;shadow=0;dashed=0;shape=mxgraph.ios7.icons.document;fontSize=13;" vertex="1" parent="1">
          <mxGeometry x="119.5" y="770" width="21" height="30" as="geometry" />
        </mxCell>
        <mxCell id="bTy6FdHvfOLYRTyY2FJP-94" style="edgeStyle=orthogonalEdgeStyle;rounded=0;orthogonalLoop=1;jettySize=auto;html=1;entryX=0;entryY=0.5;entryDx=0;entryDy=0;entryPerimeter=0;fontSize=13;" edge="1" parent="1" source="bTy6FdHvfOLYRTyY2FJP-92" target="bTy6FdHvfOLYRTyY2FJP-79">
          <mxGeometry relative="1" as="geometry" />
        </mxCell>
        <mxCell id="bTy6FdHvfOLYRTyY2FJP-95" value="Emap" style="edgeLabel;html=1;align=center;verticalAlign=middle;resizable=0;points=[];fontSize=13;" vertex="1" connectable="0" parent="bTy6FdHvfOLYRTyY2FJP-94">
          <mxGeometry x="-0.2708" relative="1" as="geometry">
            <mxPoint as="offset" />
          </mxGeometry>
        </mxCell>
        <mxCell id="bTy6FdHvfOLYRTyY2FJP-92" value="index.vue" style="html=1;verticalLabelPosition=bottom;align=center;labelBackgroundColor=#ffffff;verticalAlign=top;strokeWidth=2;strokeColor=#0080F0;shadow=0;dashed=0;shape=mxgraph.ios7.icons.document;fontSize=13;" vertex="1" parent="1">
          <mxGeometry x="119.5" y="660" width="21" height="30" as="geometry" />
        </mxCell>
        <mxCell id="bTy6FdHvfOLYRTyY2FJP-130" style="edgeStyle=orthogonalEdgeStyle;rounded=0;orthogonalLoop=1;jettySize=auto;html=1;entryX=1;entryY=0.115;entryDx=0;entryDy=0;entryPerimeter=0;fontSize=13;" edge="1" parent="1" source="bTy6FdHvfOLYRTyY2FJP-112" target="bTy6FdHvfOLYRTyY2FJP-54">
          <mxGeometry relative="1" as="geometry" />
        </mxCell>
        <mxCell id="bTy6FdHvfOLYRTyY2FJP-112" value="ebus" style="html=1;verticalLabelPosition=bottom;align=center;labelBackgroundColor=#ffffff;verticalAlign=top;strokeWidth=2;strokeColor=#0080F0;shadow=0;dashed=0;shape=mxgraph.ios7.icons.document;fontSize=13;direction=south;" vertex="1" parent="1">
          <mxGeometry x="-44.5" y="704.5" width="30" height="21" as="geometry" />
        </mxCell>
        <mxCell id="bTy6FdHvfOLYRTyY2FJP-121" value="" style="edgeStyle=orthogonalEdgeStyle;rounded=0;orthogonalLoop=1;jettySize=auto;html=1;fontSize=13;" edge="1" parent="1" source="bTy6FdHvfOLYRTyY2FJP-115">
          <mxGeometry relative="1" as="geometry">
            <mxPoint x="-200" y="835" as="targetPoint" />
          </mxGeometry>
        </mxCell>
        <mxCell id="bTy6FdHvfOLYRTyY2FJP-122" value="loadWigets" style="edgeLabel;html=1;align=center;verticalAlign=middle;resizable=0;points=[];fontSize=13;" vertex="1" connectable="0" parent="bTy6FdHvfOLYRTyY2FJP-121">
          <mxGeometry x="-0.125" y="2" relative="1" as="geometry">
            <mxPoint as="offset" />
          </mxGeometry>
        </mxCell>
        <mxCell id="bTy6FdHvfOLYRTyY2FJP-115" value="loader.js&lt;br&gt;" style="html=1;verticalLabelPosition=bottom;align=center;labelBackgroundColor=#ffffff;verticalAlign=top;strokeWidth=2;strokeColor=#0080F0;shadow=0;dashed=0;shape=mxgraph.ios7.icons.document;fontSize=13;" vertex="1" parent="1">
          <mxGeometry x="-40" y="820" width="21" height="30" as="geometry" />
        </mxCell>
        <mxCell id="bTy6FdHvfOLYRTyY2FJP-176" style="edgeStyle=orthogonalEdgeStyle;rounded=0;orthogonalLoop=1;jettySize=auto;html=1;fontSize=13;" edge="1" parent="1" source="bTy6FdHvfOLYRTyY2FJP-123" target="bTy6FdHvfOLYRTyY2FJP-133">
          <mxGeometry relative="1" as="geometry" />
        </mxCell>
        <mxCell id="bTy6FdHvfOLYRTyY2FJP-177" value="register" style="edgeLabel;html=1;align=center;verticalAlign=middle;resizable=0;points=[];fontSize=13;" vertex="1" connectable="0" parent="bTy6FdHvfOLYRTyY2FJP-176">
          <mxGeometry x="-0.1565" y="1" relative="1" as="geometry">
            <mxPoint as="offset" />
          </mxGeometry>
        </mxCell>
        <mxCell id="bTy6FdHvfOLYRTyY2FJP-123" value="C9601.json" style="html=1;verticalLabelPosition=bottom;align=center;labelBackgroundColor=#ffffff;verticalAlign=top;strokeWidth=2;strokeColor=#0080F0;shadow=0;dashed=0;shape=mxgraph.ios7.icons.document;fontSize=13;" vertex="1" parent="1">
          <mxGeometry x="-220" y="820" width="21" height="30" as="geometry" />
        </mxCell>
        <mxCell id="bTy6FdHvfOLYRTyY2FJP-128" value="" style="shape=curlyBracket;whiteSpace=wrap;html=1;rounded=1;strokeColor=#FFFFFF;fontSize=13;" vertex="1" parent="1">
          <mxGeometry x="180" y="680" width="20" height="120" as="geometry" />
        </mxCell>
        <mxCell id="bTy6FdHvfOLYRTyY2FJP-132" value="Vue" style="edgeStyle=orthogonalEdgeStyle;rounded=0;orthogonalLoop=1;jettySize=auto;html=1;fontSize=13;" edge="1" parent="1" source="bTy6FdHvfOLYRTyY2FJP-131" target="bTy6FdHvfOLYRTyY2FJP-112">
          <mxGeometry relative="1" as="geometry" />
        </mxCell>
        <mxCell id="bTy6FdHvfOLYRTyY2FJP-131" value="eventType.js&lt;br&gt;" style="html=1;verticalLabelPosition=bottom;align=center;labelBackgroundColor=#ffffff;verticalAlign=top;strokeWidth=2;strokeColor=#0080F0;shadow=0;dashed=0;shape=mxgraph.ios7.icons.document;fontSize=13;" vertex="1" parent="1">
          <mxGeometry x="-40" y="570" width="21" height="30" as="geometry" />
        </mxCell>
        <mxCell id="bTy6FdHvfOLYRTyY2FJP-139" value="" style="edgeStyle=orthogonalEdgeStyle;rounded=0;orthogonalLoop=1;jettySize=auto;html=1;fontSize=13;" edge="1" parent="1" source="bTy6FdHvfOLYRTyY2FJP-133" target="bTy6FdHvfOLYRTyY2FJP-140">
          <mxGeometry relative="1" as="geometry">
            <mxPoint x="-90" y="1335" as="targetPoint" />
          </mxGeometry>
        </mxCell>
        <mxCell id="bTy6FdHvfOLYRTyY2FJP-141" value="ebus.getWiget" style="edgeLabel;html=1;align=center;verticalAlign=middle;resizable=0;points=[];fontSize=13;" vertex="1" connectable="0" parent="bTy6FdHvfOLYRTyY2FJP-139">
          <mxGeometry x="0.2266" relative="1" as="geometry">
            <mxPoint as="offset" />
          </mxGeometry>
        </mxCell>
        <mxCell id="bTy6FdHvfOLYRTyY2FJP-157" style="edgeStyle=orthogonalEdgeStyle;rounded=0;orthogonalLoop=1;jettySize=auto;html=1;fontSize=13;" edge="1" parent="1" source="bTy6FdHvfOLYRTyY2FJP-133" target="bTy6FdHvfOLYRTyY2FJP-154">
          <mxGeometry relative="1" as="geometry" />
        </mxCell>
        <mxCell id="bTy6FdHvfOLYRTyY2FJP-133" value="components" style="shape=cube;whiteSpace=wrap;html=1;boundedLbl=1;backgroundOutline=1;darkOpacity=0.05;darkOpacity2=0.1;shadow=0;dashed=0;fontSize=13;verticalAlign=top;strokeColor=#0080F0;strokeWidth=2;labelBackgroundColor=#ffffff;" vertex="1" parent="1">
          <mxGeometry x="-257.87" y="1080" width="96.75" height="50" as="geometry" />
        </mxCell>
        <mxCell id="bTy6FdHvfOLYRTyY2FJP-140" value="&lt;font style=&quot;font-size: 13px&quot;&gt;dhgis.vue&lt;/font&gt;" style="html=1;verticalLabelPosition=bottom;align=center;labelBackgroundColor=#ffffff;verticalAlign=top;strokeWidth=2;strokeColor=#0080F0;shadow=0;dashed=0;shape=mxgraph.ios7.icons.document;fontSize=20;" vertex="1" parent="1">
          <mxGeometry y="1160" width="41" height="62.5" as="geometry" />
        </mxCell>
        <mxCell id="bTy6FdHvfOLYRTyY2FJP-146" style="edgeStyle=orthogonalEdgeStyle;rounded=0;orthogonalLoop=1;jettySize=auto;html=1;fontSize=13;" edge="1" parent="1" source="bTy6FdHvfOLYRTyY2FJP-145" target="bTy6FdHvfOLYRTyY2FJP-140">
          <mxGeometry relative="1" as="geometry" />
        </mxCell>
        <mxCell id="bTy6FdHvfOLYRTyY2FJP-145" value="&lt;font color=&quot;#ff4066&quot; style=&quot;font-size: 20px&quot;&gt;地图与组件初始化位置&lt;/font&gt;" style="text;html=1;strokeColor=none;fillColor=none;align=center;verticalAlign=middle;whiteSpace=wrap;rounded=0;fontSize=13;" vertex="1" parent="1">
          <mxGeometry x="-84.5" y="1300" width="210" height="35" as="geometry" />
        </mxCell>
        <mxCell id="bTy6FdHvfOLYRTyY2FJP-184" value="" style="edgeStyle=orthogonalEdgeStyle;rounded=0;orthogonalLoop=1;jettySize=auto;html=1;fontSize=13;" edge="1" parent="1" source="bTy6FdHvfOLYRTyY2FJP-154" target="bTy6FdHvfOLYRTyY2FJP-183">
          <mxGeometry relative="1" as="geometry" />
        </mxCell>
        <mxCell id="bTy6FdHvfOLYRTyY2FJP-185" value="plm文件夹" style="edgeLabel;html=1;align=center;verticalAlign=middle;resizable=0;points=[];fontSize=13;" vertex="1" connectable="0" parent="bTy6FdHvfOLYRTyY2FJP-184">
          <mxGeometry x="-0.2182" y="3" relative="1" as="geometry">
            <mxPoint as="offset" />
          </mxGeometry>
        </mxCell>
        <mxCell id="bTy6FdHvfOLYRTyY2FJP-154" value="&lt;font style=&quot;font-size: 13px&quot;&gt;plm-components&lt;/font&gt;" style="html=1;verticalLabelPosition=bottom;align=center;labelBackgroundColor=#ffffff;verticalAlign=top;strokeWidth=2;strokeColor=#0080F0;shadow=0;dashed=0;shape=mxgraph.ios7.icons.document;fontSize=20;" vertex="1" parent="1">
          <mxGeometry x="-229.99" y="1200" width="41" height="62.5" as="geometry" />
        </mxCell>
        <mxCell id="bTy6FdHvfOLYRTyY2FJP-174" style="edgeStyle=orthogonalEdgeStyle;rounded=0;orthogonalLoop=1;jettySize=auto;html=1;fontSize=13;" edge="1" parent="1" source="bTy6FdHvfOLYRTyY2FJP-172" target="bTy6FdHvfOLYRTyY2FJP-154">
          <mxGeometry relative="1" as="geometry" />
        </mxCell>
        <mxCell id="bTy6FdHvfOLYRTyY2FJP-172" value="Project" style="points=[[0,0],[0.25,0],[0.5,0],[0.75,0],[1,0],[1,0.25],[1,0.5],[1,0.75],[1,1],[0.75,1],[0.5,1],[0.25,1],[0,1],[0,0.75],[0,0.5],[0,0.25]];outlineConnect=0;gradientColor=none;html=1;whiteSpace=wrap;fontSize=12;fontStyle=0;shape=mxgraph.aws4.group;grIcon=mxgraph.aws4.group_region;strokeColor=#147EBA;fillColor=none;verticalAlign=top;align=left;spacingLeft=30;fontColor=#147EBA;dashed=1;" vertex="1" parent="1">
          <mxGeometry x="-274.49" y="1350" width="130" height="130" as="geometry" />
        </mxCell>
        <mxCell id="bTy6FdHvfOLYRTyY2FJP-175" value="定制图层" style="text;html=1;strokeColor=none;fillColor=none;align=center;verticalAlign=middle;whiteSpace=wrap;rounded=0;fontSize=13;" vertex="1" parent="1">
          <mxGeometry x="-260" y="1390" width="90" height="20" as="geometry" />
        </mxCell>
        <mxCell id="bTy6FdHvfOLYRTyY2FJP-178" value="定制功能" style="text;html=1;strokeColor=none;fillColor=none;align=center;verticalAlign=middle;whiteSpace=wrap;rounded=0;fontSize=13;" vertex="1" parent="1">
          <mxGeometry x="-260" y="1420" width="90" height="20" as="geometry" />
        </mxCell>
        <mxCell id="bTy6FdHvfOLYRTyY2FJP-179" value="定制功能" style="text;html=1;strokeColor=none;fillColor=none;align=center;verticalAlign=middle;whiteSpace=wrap;rounded=0;fontSize=13;" vertex="1" parent="1">
          <mxGeometry x="-260" y="1450" width="90" height="20" as="geometry" />
        </mxCell>
        <mxCell id="bTy6FdHvfOLYRTyY2FJP-191" style="edgeStyle=orthogonalEdgeStyle;rounded=0;orthogonalLoop=1;jettySize=auto;html=1;fontSize=13;" edge="1" parent="1" source="bTy6FdHvfOLYRTyY2FJP-183" target="bTy6FdHvfOLYRTyY2FJP-189">
          <mxGeometry relative="1" as="geometry" />
        </mxCell>
        <mxCell id="bTy6FdHvfOLYRTyY2FJP-192" style="edgeStyle=orthogonalEdgeStyle;rounded=0;orthogonalLoop=1;jettySize=auto;html=1;entryX=1;entryY=0.5;entryDx=0;entryDy=0;fontSize=13;" edge="1" parent="1" source="bTy6FdHvfOLYRTyY2FJP-183" target="bTy6FdHvfOLYRTyY2FJP-190">
          <mxGeometry relative="1" as="geometry" />
        </mxCell>
        <mxCell id="bTy6FdHvfOLYRTyY2FJP-193" style="edgeStyle=orthogonalEdgeStyle;rounded=0;orthogonalLoop=1;jettySize=auto;html=1;entryX=1;entryY=0.5;entryDx=0;entryDy=0;entryPerimeter=0;fontSize=13;" edge="1" parent="1" source="bTy6FdHvfOLYRTyY2FJP-183" target="bTy6FdHvfOLYRTyY2FJP-188">
          <mxGeometry relative="1" as="geometry" />
        </mxCell>
        <mxCell id="bTy6FdHvfOLYRTyY2FJP-183" value="&lt;font style=&quot;font-size: 13px&quot;&gt;xx项目&lt;/font&gt;" style="shape=process;whiteSpace=wrap;html=1;backgroundOutline=1;shadow=0;dashed=0;fontSize=20;verticalAlign=top;strokeColor=#0080F0;strokeWidth=2;labelBackgroundColor=#ffffff;" vertex="1" parent="1">
          <mxGeometry x="-430" y="1210.63" width="69.51" height="41.25" as="geometry" />
        </mxCell>
        <mxCell id="bTy6FdHvfOLYRTyY2FJP-188" value="&lt;font style=&quot;font-size: 13px&quot;&gt;xxLayer.vue&lt;/font&gt;" style="html=1;dashed=0;whitespace=wrap;shape=mxgraph.dfd.start;fontSize=20;" vertex="1" parent="1">
          <mxGeometry x="-565.24" y="1296.25" width="80" height="42.5" as="geometry" />
        </mxCell>
        <mxCell id="bTy6FdHvfOLYRTyY2FJP-189" value="&lt;font style=&quot;font-size: 13px&quot;&gt;js&lt;/font&gt;" style="shape=process;whiteSpace=wrap;html=1;backgroundOutline=1;shadow=0;dashed=0;fontSize=20;verticalAlign=top;strokeColor=#0080F0;strokeWidth=2;labelBackgroundColor=#ffffff;" vertex="1" parent="1">
          <mxGeometry x="-560" y="1210.6200000000001" width="69.51" height="41.25" as="geometry" />
        </mxCell>
        <mxCell id="bTy6FdHvfOLYRTyY2FJP-190" value="&lt;font style=&quot;font-size: 13px&quot;&gt;popup&lt;/font&gt;" style="shape=process;whiteSpace=wrap;html=1;backgroundOutline=1;shadow=0;dashed=0;fontSize=20;verticalAlign=top;strokeColor=#0080F0;strokeWidth=2;labelBackgroundColor=#ffffff;" vertex="1" parent="1">
          <mxGeometry x="-560" y="1118.75" width="69.51" height="41.25" as="geometry" />
        </mxCell>
        <mxCell id="bTy6FdHvfOLYRTyY2FJP-203" value="&lt;font style=&quot;font-size: 20px&quot;&gt;......&lt;/font&gt;" style="text;html=1;strokeColor=none;fillColor=none;align=center;verticalAlign=middle;whiteSpace=wrap;rounded=0;dashed=1;fontSize=13;rotation=90;" vertex="1" parent="1">
          <mxGeometry x="-540" y="1363" width="40" height="20" as="geometry" />
        </mxCell>
      </root>
    </mxGraphModel>
  </diagram>
</mxfile>
